<?xml version="1.0" encoding="UTF-8"?>
<!DOCTYPE svg PUBLIC "-//W3C//DTD SVG 1.1//EN" "http://www.w3.org/Graphics/SVG/1.1/DTD/svg11.dtd">
<!-- Creator: CorelDRAW 2020 (64-Bit) -->
<svg xmlns="http://www.w3.org/2000/svg" xml:space="preserve" width="38.1485mm" height="26.4905mm" version="1.1" style="shape-rendering:geometricPrecision; text-rendering:geometricPrecision; image-rendering:optimizeQuality; fill-rule:evenodd; clip-rule:evenodd"
viewBox="0 0 105.23 73.07"
 xmlns:xlink="http://www.w3.org/1999/xlink"
 xmlns:xodm="http://www.corel.com/coreldraw/odm/2003">
 <defs>
  <style type="text/css">
   <![CDATA[
    .fil2 {fill:#2BAFCB}
    .fil1 {fill:#D43B9B}
    .fil3 {fill:#EEC02D}
    .fil0 {fill:white}
   ]]>
  </style>
 </defs>
 <g id="Layer_x0020_1">
  <metadata id="CorelCorpID_0Corel-Layer"/>
  <g id="_1702100993008">
   <g id="_1702094266032">
    <path class="fil0" d="M69.75 1l-12.57 0c-1.42,0 -2.37,0.41 -3.44,1.13 -0.27,-0.06 -0.7,-0.32 -1,-0.44 -1.14,-0.45 -2.51,-0.69 -3.82,-0.69 -1.89,0 -9.86,-0.09 -11.12,0.08 -0.22,0.03 -0.78,0.21 -0.9,0.21 -0.13,0.01 -0.94,-0.29 -1.93,-0.29l-12.26 0c-1.3,0 -1.22,0.36 -1.7,0.02 -0.18,-0.12 -0.26,-0.18 -0.47,-0.29 -0.57,-0.29 -1.39,-0.6 -2.21,-0.6l-5.76 0c-0.67,0 -1.49,0.31 -1.96,0.54 -0.81,0.4 -1.56,1.01 -2.06,1.76 -0.54,0.82 -0.99,1.79 -0.99,2.89l0 9.76c-1.82,0 -3.75,1.45 -4.48,3.02 -0.21,0.45 -0.52,1.36 -0.52,1.98l0 4.19c0,0.49 0.19,0.49 -0.07,0.8 -2.2,2.69 -1.87,4.83 -1.87,8.33 0,2.93 0.85,3.07 0.47,3.98 -0.68,1.62 -0.47,3.61 -0.47,5.53 0,0.69 0.1,1.68 0.3,2.32 0.31,0.99 0.28,0.47 -0.22,1.39 -0.43,0.78 -0.71,1.7 -0.71,2.67l0 18.27c0,1.1 0.4,2.34 0.99,3.14 0.53,0.72 0.69,0.88 1.41,1.4 0.82,0.6 2.08,0.96 3.23,0.96l6.88 0c2.1,0 4.01,-0.27 5.86,-0.9l1.65 -0.67c0.4,0.27 0.6,0.66 1.65,1.1 0.66,0.27 1.39,0.46 2.29,0.46l12.95 0c1.54,0 2.38,-0.56 2.63,-0.56 0.07,0 1.51,0.56 3.5,0.56l6.94 0c1.43,0 2.76,-0.23 3.81,-0.63 0.82,-0.31 0.18,-0.16 1.58,0.32 0.56,0.19 1.19,0.32 1.93,0.32l4.63 0c0.93,0 2.12,-0.27 2.84,-0.72 0.46,-0.29 0.35,-0.23 0.85,-0.03 1.15,0.47 2.51,0.75 4.13,0.75l6.82 0c1.47,0 2.83,-0.24 3.9,-0.67 0.49,-0.2 0.35,-0.26 0.73,-0.02 0.72,0.44 1.87,0.69 2.81,0.69l4.3 0c0.65,-0.02 1.21,-0.05 1.52,-0.12 0.19,-0.04 0.35,-0.08 0.5,-0.12 0.11,-0.03 0.41,-0.15 0.5,-0.16 0.13,-0 0.86,0.4 2.18,0.4l6.57 0c2.2,0 4.09,-1.12 5.05,-3.02 0.28,-0.57 0.58,-1.35 0.58,-2.17l0 -18.96c0,-1.69 -1.25,-3.08 -1.31,-3.2 -0.07,-0.14 -0.07,-0.02 0.01,-0.28 0.2,-0.61 0.36,-1.22 0.36,-1.97l0 -13.7c0,-1.3 -0.44,-2.54 -0.92,-3.4 -0.13,-0.23 -0.26,-0.45 -0.41,-0.65 -0.16,-0.21 -0.29,-0.42 -0.47,-0.6 -0.11,-0.11 -0.14,-0.13 -0.24,-0.26 -0.14,-0.18 -0.7,-0.73 -0.9,-0.79 0.06,-0.25 0.13,-0.41 0.21,-0.67 0.42,-1.41 0.35,-5.5 0.15,-6.9 -0.28,-1.96 -0.66,-1.14 -0.2,-2.35 0.47,-1.23 0.34,-3.47 0.34,-4.85 0,-2.47 -0.89,-4.57 -2.65,-6.05 -1.55,-1.3 -3.66,-2.27 -6.49,-2.27 -2.11,0 -6.77,-0.13 -8.64,0.18 -0.33,0.05 -0.6,0.11 -0.87,0.19 -0.29,0.09 -0.59,0.19 -0.87,0.26 -0.29,-0.44 -1,-0.85 -1.52,-1.11 -0.57,-0.28 -1.34,-0.52 -2.17,-0.52l-5.63 0c-0.78,0 -1.91,0.36 -2.52,0.74 -0.85,0.54 -0.27,0.26 -0.74,0.26l0 -0z"/>
    <path class="fil1" d="M84.16 30.03l0 13.07c0,1.72 1.88,2.64 3.68,2.64l7.32 0c0.93,0 1.75,-0.23 2.4,-0.61 0.51,-0.3 1.27,-0.96 1.27,-1.78l0 -13.45c0,-1.62 -2.03,-2.5 -3.74,-2.5l-7.13 0c-1.86,0 -3.8,0.86 -3.8,2.63l-0 0z"/>
    <path class="fil1" d="M57.1 45.75l7.46 0c3.25,0 7.21,-1.41 7.21,-4.52l0 -11.32c0,-1.65 -2.05,-2.5 -3.83,-2.5l-10.89 0 0.05 18.35z"/>
    <path class="fil2" d="M5.47 67.59l7.69 0c3.26,0 6.98,-1.49 6.98,-4.66l0 -11.07c0,-1.6 -1.8,-2.6 -3.5,-2.6l-11.17 0 0 18.33 -0 0z"/>
    <path class="fil2" d="M83.83 67.59l4.97 -0 0.02 -11.6c0.23,0.38 1.88,5.29 2.05,5.78 0.23,0.68 1.89,5.58 2.05,5.82l6.83 0 0.03 -18.33 -4.97 0 -0.02 11.67 -4.05 -11.66 -6.88 -0.01 -0.03 18.33 0 0z"/>
    <path class="fil3" d="M38.61 23.87l4.73 0.01 0.01 -6.19c0.88,0 1.75,-0 2.63,-0 2.32,0 1.83,1.43 1.83,3.52 0,0.84 -0.05,1.85 0.01,2.67l4.73 0.01 0.02 -4.74c-0,-1.37 -0.54,-2.45 -1.77,-3.05 0.12,-0.17 0.05,-0.08 0.21,-0.19 0.54,-0.37 1.02,-0.72 1.33,-1.42 0.35,-0.81 0.24,-2.01 0.24,-2.97 0,-2.54 0.42,-3.74 -1.66,-4.68 -1.24,-0.56 -4.35,-0.36 -5.93,-0.36 -2.02,0 -4.36,-0.11 -6.34,0.01l-0.02 17.39 -0 0z"/>
    <path class="fil2" d="M80.5 57.68l-7.35 -0.02 -0 3.39 2.35 0.02 0.02 3.11 -4.7 0 0 -11.53 4.7 0 0 2.8 4.96 -0c0.08,-0.48 0.06,-3.35 0.01,-3.87 -0.11,-1.06 -1.08,-1.7 -1.97,-2.04 -1.26,-0.48 -6,-0.27 -7.7,-0.27 -1.5,0 -3.54,-0.09 -4.6,1.37 -0.39,0.53 -0.39,0.84 -0.39,1.6l0 11.95c0,1.67 0.13,2.07 1.22,2.77 1.03,0.66 2.04,0.64 3.39,0.64 1.56,0 6.61,0.14 7.79,-0.19 0.95,-0.26 1.95,-0.96 2.19,-1.81 0.15,-0.54 0.07,-6.82 0.07,-7.91l0 0z"/>
    <path class="fil1" d="M6.1 30.03l0 3.63c0,3.42 4.11,4.53 6.97,4.62 1.1,0.03 2.71,-0.01 2.71,1.2l-0.02 2.86 -4.66 -0 -0.01 -2.8 -4.99 0.02c0,1.13 -0.2,3.83 0.27,4.62 0.54,0.89 1.85,1.57 3.39,1.57l7.29 0c1.76,0 3.72,-0.91 3.72,-2.52l0 -3.88c0,-2.43 -2.55,-3.81 -4.87,-4.26 -1.18,-0.23 -3.2,-0.1 -4.11,-0.46 -0.68,-0.27 -0.7,-0.71 -0.7,-1.53 0,-0.58 -0.07,-1.78 0.02,-2.28l4.63 -0.01c0.1,0.37 0.04,2.26 0.04,2.78 0.62,0.06 4.1,0.02 4.99,0.02l0 -3.71c0,-1.63 -2.03,-2.5 -3.75,-2.5l-7.13 0c-1.84,0 -3.79,0.87 -3.79,2.63l0 0z"/>
    <path class="fil2" d="M48.91 64.17l-4.69 0.02 -0 -2.79 -4.97 -0.01c-0.08,0.82 -0.02,1.95 -0.02,2.8 0,1.06 -0.02,1.64 0.55,2.26 1.14,1.23 2.98,1.15 4.58,1.15 1.88,0 3.75,-0 5.63,0 0.88,0 1.7,-0.12 2.38,-0.47 0.57,-0.29 1.23,-0.8 1.43,-1.44 0.22,-0.67 0.15,-4.75 -0.06,-5.44 -0.41,-1.35 -1.61,-2.2 -2.93,-2.76 -3.13,-1.34 -6.49,-0.05 -6.59,-1.93 -0.05,-0.91 0,-1.97 0,-2.9l4.69 0 0 2.8 4.97 0c0.02,-0.95 0.02,-1.9 0.02,-2.85 0,-1.09 0,-1.61 -0.62,-2.23 -1.17,-1.15 -2.62,-1.12 -4.6,-1.12 -1.88,0 -3.75,0 -5.63,-0 -1.72,-0 -3.37,0.71 -3.75,1.98 -0.2,0.67 -0.12,4.74 0.09,5.4 0.64,2 3.16,3.05 5.16,3.35 1.69,0.25 4.26,-0.21 4.36,1.32 0.05,0.88 0,1.95 0,2.86l-0 -0z"/>
    <path class="fil1" d="M38.54 43.16c0,1.66 1.93,2.58 3.69,2.58l7.33 0c1.54,0 3.21,-0.77 3.57,-1.95 0.2,-0.68 0.09,-4.39 0.09,-5.39 0,-3.66 0,-7.32 0,-10.98 -0.54,-0.09 -4.16,-0.03 -4.99,-0.03l-0.01 14.92 -4.66 0.01 -0.02 -14.92c-0.81,-0.06 -3.95,-0.02 -4.99,-0.01l0 15.76 0 0z"/>
    <path class="fil3" d="M91.6 20.66l-4.44 -0 0 -2.67 -4.74 0c0,0.57 -0.06,3.58 0.06,4.01 0.12,0.42 0.3,0.6 0.54,0.84 1.09,1.12 2.46,1.05 4.31,1.05 1.79,0 3.59,-0 5.38,0 1.32,0 3.15,-0.48 3.57,-1.85 0.2,-0.64 0.12,-4.54 -0.09,-5.18 -0.61,-1.9 -3.02,-2.87 -4.91,-3.16 -0.87,-0.13 -1.68,-0.09 -2.53,-0.16 -0.8,-0.07 -1.56,-0.29 -1.6,-1.08 -0.04,-0.73 -0.05,-2.01 0.01,-2.72l4.41 -0.01 0.02 2.62 4.76 0.02c0,-0.91 0,-1.82 0,-2.72 0,-0.99 -0.03,-1.59 -0.59,-2.12 -1.1,-1.05 -2.46,-1.04 -4.31,-1.04 -1.79,0 -3.59,0 -5.38,-0 -1.31,-0 -3.15,0.45 -3.58,1.83 -0.18,0.57 -0.12,4.48 0.05,5.11 0.55,1.95 3,2.96 4.89,3.24 1.63,0.25 4.06,-0.2 4.16,1.23 0.06,0.84 0,1.9 0,2.77l-0 -0z"/>
    <path class="fil2" d="M23.82 67.59l13.26 0 0.02 -3.41c-1.18,0 -7.66,0.04 -8.29,-0.02l0 -4 6.9 -0.02 0 -3.39 -6.89 -0.02 -0.01 -4.03c0.38,-0.1 7.27,-0.04 8.27,-0.04l0.02 -3.39 -13.28 0 0 18.33 -0 0z"/>
    <polygon class="fil3" points="22.55,23.86 35.15,23.88 35.16,20.66 27.29,20.65 27.3,16.8 33.85,16.8 33.85,13.56 27.31,13.55 27.29,9.72 35.16,9.71 35.16,6.47 22.57,6.47 "/>
    <polygon class="fil3" points="57.02,23.86 69.63,23.88 69.65,20.66 61.76,20.65 61.77,16.8 68.33,16.8 68.33,13.56 61.78,13.55 61.77,9.72 69.63,9.71 69.65,6.49 57.04,6.47 "/>
    <path class="fil1" d="M22.43 30.79l4.86 0.02 0 14.92 4.98 0 -0 -14.92 4.8 0c0.09,-0.51 0.03,-2.73 0.03,-3.41l-14.67 0 0 3.39 0 0z"/>
    <path class="fil3" d="M13.01 19.27c0,0.95 -1.01,1.15 -1.94,1.2 -0.98,0.05 -2.08,0.02 -3.08,0.02l0 3.4c2.22,0 4.53,0.14 6.49,-0.58 1.65,-0.6 3.29,-1.67 3.5,-3.57 0.08,-0.7 0.02,-13.1 0.02,-14.16 -0.65,-0.06 -4.07,-0.02 -4.99,-0.02l0 13.72 -0 0z"/>
    <polygon class="fil1" points="75.46,45.73 75.7,45.75 80.45,45.75 80.45,27.4 75.46,27.4 "/>
    <polygon class="fil2" points="57.12,67.59 62.08,67.59 62.11,49.27 57.15,49.26 "/>
    <polygon class="fil0" points="89.15,42.1 89.16,42.34 93.82,42.33 93.84,42.1 93.84,30.81 89.15,30.81 "/>
    <path class="fil0" d="M62.09 42.31c0.48,0.08 2.36,0.05 2.9,0 0.89,-0.07 1.79,-0.28 1.79,-1.22l0 -10.29c-0.72,0 -4.3,-0.09 -4.69,0.05l0 11.45z"/>
    <path class="fil0" d="M10.46 64.17l0.23 0.02 2.38 -0c1.04,0 2.08,-0.24 2.08,-1.31l0 -10.21 -4.69 0 0 11.51 0 -0z"/>
    <path class="fil3" d="M73.24 8.85l1.49 0c0.18,0.63 -0.04,2.93 0.06,3.82 0.43,-0.46 0.91,-0.88 1.34,-1.36l2.02 -2.11c0.38,-0.38 0.36,-0.3 0.35,-1.01 -0.01,-0.91 -0,-1.83 -0,-2.74 -0.91,-0.06 -4.12,-0.01 -5.26,-0.01l0 3.41 0 0z"/>
    <path class="fil0" d="M43.35 14.45c1.27,0 3.26,0.26 4.11,-0.45 0.49,-0.41 0.34,-1.21 0.34,-1.99 0,-0.66 0.06,-1.69 -0.02,-2.3l-4.42 0 -0.02 4.74 0 0z"/>
   </g>
  </g>
 </g>
</svg>
