<?xml version="1.0" encoding="UTF-8"?>
<!DOCTYPE svg PUBLIC "-//W3C//DTD SVG 1.1//EN" "http://www.w3.org/Graphics/SVG/1.1/DTD/svg11.dtd">
<!-- Creator: CorelDRAW 2020 (64-Bit) -->
<svg xmlns="http://www.w3.org/2000/svg" xml:space="preserve" width="5.2883mm" height="3.6722mm" version="1.1" style="shape-rendering:geometricPrecision; text-rendering:geometricPrecision; image-rendering:optimizeQuality; fill-rule:evenodd; clip-rule:evenodd"
viewBox="0 0 2.22 1.54"
 xmlns:xlink="http://www.w3.org/1999/xlink"
 xmlns:xodm="http://www.corel.com/coreldraw/odm/2003">
 <defs>
  <style type="text/css">
   <![CDATA[
    .fil1 {fill:#2BAFCB}
    .fil2 {fill:#D43B9B}
    .fil3 {fill:#EEC02D}
    .fil0 {fill:white}
   ]]>
  </style>
 </defs>
 <g id="Layer_x0020_1">
  <metadata id="CorelCorpID_0Corel-Layer"/>
  <path class="fil0" d="M1.47 0.02l-0.27 0c-0.03,0 -0.05,0.01 -0.07,0.02 -0.01,-0 -0.01,-0.01 -0.02,-0.01 -0.02,-0.01 -0.05,-0.01 -0.08,-0.01 -0.04,0 -0.21,-0 -0.23,0 -0,0 -0.02,0 -0.02,0 -0,0 -0.02,-0.01 -0.04,-0.01l-0.26 0c-0.03,0 -0.03,0.01 -0.04,0 -0,-0 -0.01,-0 -0.01,-0.01 -0.01,-0.01 -0.03,-0.01 -0.05,-0.01l-0.12 0c-0.01,0 -0.03,0.01 -0.04,0.01 -0.02,0.01 -0.03,0.02 -0.04,0.04 -0.01,0.02 -0.02,0.04 -0.02,0.06l0 0.21c-0.04,0 -0.08,0.03 -0.09,0.06 -0,0.01 -0.01,0.03 -0.01,0.04l0 0.09c0,0.01 0,0.01 -0,0.02 -0.05,0.06 -0.04,0.1 -0.04,0.18 0,0.06 0.02,0.06 0.01,0.08 -0.01,0.03 -0.01,0.08 -0.01,0.12 0,0.01 0,0.04 0.01,0.05 0.01,0.02 0.01,0.01 -0,0.03 -0.01,0.02 -0.01,0.04 -0.01,0.06l0 0.38c0,0.02 0.01,0.05 0.02,0.07 0.01,0.02 0.01,0.02 0.03,0.03 0.02,0.01 0.04,0.02 0.07,0.02l0.15 0c0.04,0 0.08,-0.01 0.12,-0.02l0.03 -0.01c0.01,0.01 0.01,0.01 0.03,0.02 0.01,0.01 0.03,0.01 0.05,0.01l0.27 0c0.03,0 0.05,-0.01 0.06,-0.01 0,0 0.03,0.01 0.07,0.01l0.15 0c0.03,0 0.06,-0 0.08,-0.01 0.02,-0.01 0,-0 0.03,0.01 0.01,0 0.03,0.01 0.04,0.01l0.1 0c0.02,0 0.04,-0.01 0.06,-0.02 0.01,-0.01 0.01,-0 0.02,-0 0.02,0.01 0.05,0.02 0.09,0.02l0.14 0c0.03,0 0.06,-0.01 0.08,-0.01 0.01,-0 0.01,-0.01 0.02,-0 0.02,0.01 0.04,0.01 0.06,0.01l0.09 0c0.01,-0 0.03,-0 0.03,-0 0,-0 0.01,-0 0.01,-0 0,-0 0.01,-0 0.01,-0 0,-0 0.02,0.01 0.05,0.01l0.14 0c0.05,0 0.09,-0.02 0.11,-0.06 0.01,-0.01 0.01,-0.03 0.01,-0.05l0 -0.4c0,-0.04 -0.03,-0.06 -0.03,-0.07 -0,-0 -0,-0 0,-0.01 0,-0.01 0.01,-0.03 0.01,-0.04l0 -0.29c0,-0.03 -0.01,-0.05 -0.02,-0.07 -0,-0 -0.01,-0.01 -0.01,-0.01 -0,-0 -0.01,-0.01 -0.01,-0.01 -0,-0 -0,-0 -0.01,-0.01 -0,-0 -0.01,-0.02 -0.02,-0.02 0,-0.01 0,-0.01 0,-0.01 0.01,-0.03 0.01,-0.12 0,-0.15 -0.01,-0.04 -0.01,-0.02 -0,-0.05 0.01,-0.03 0.01,-0.07 0.01,-0.1 0,-0.05 -0.02,-0.1 -0.06,-0.13 -0.03,-0.03 -0.08,-0.05 -0.14,-0.05 -0.04,0 -0.14,-0 -0.18,0 -0.01,0 -0.01,0 -0.02,0 -0.01,0 -0.01,0 -0.02,0.01 -0.01,-0.01 -0.02,-0.02 -0.03,-0.02 -0.01,-0.01 -0.03,-0.01 -0.05,-0.01l-0.12 0c-0.02,0 -0.04,0.01 -0.05,0.02 -0.02,0.01 -0.01,0.01 -0.02,0.01l0 -0z"/>
  <path class="fil1" d="M1.77 1.42l0.1 -0 0 -0.24c0,0.01 0.04,0.11 0.04,0.12 0,0.01 0.04,0.12 0.04,0.12l0.14 0 0 -0.39 -0.1 0 -0 0.25 -0.09 -0.25 -0.15 -0 -0 0.39 0 0z"/>
  <g id="_1702110254896">
   <path class="fil2" d="M1.77 0.63l0 0.28c0,0.04 0.04,0.06 0.08,0.06l0.15 0c0.02,0 0.04,-0 0.05,-0.01 0.01,-0.01 0.03,-0.02 0.03,-0.04l0 -0.28c0,-0.03 -0.04,-0.05 -0.08,-0.05l-0.15 0c-0.04,0 -0.08,0.02 -0.08,0.06l-0 0zm0.11 0.25l0 0 0.1 0 0 -0 -0 -0.24 -0.1 0 0 0.24z"/>
   <path class="fil2" d="M1.2 0.96l0.16 0c0.07,0 0.15,-0.03 0.15,-0.1l0 -0.24c0,-0.03 -0.04,-0.05 -0.08,-0.05l-0.23 0 0 0.39zm0.11 -0.07c0.01,0 0.05,0 0.06,0 0.02,-0 0.04,-0.01 0.04,-0.03l0 -0.22c-0.02,0 -0.09,-0 -0.1,0l0 0.24z"/>
   <path class="fil1" d="M0.12 1.42l0.16 0c0.07,0 0.15,-0.03 0.15,-0.1l0 -0.23c0,-0.03 -0.04,-0.05 -0.07,-0.05l-0.24 0 0 0.39 -0 0zm0.11 -0.07l0 0 0.05 -0c0.02,0 0.04,-0.01 0.04,-0.03l0 -0.22 -0.1 0 0 0.24 0 0z"/>
   <path class="fil3" d="M0.81 0.5l0.1 0 0 -0.13c0.02,0 0.04,0 0.06,0 0.05,0 0.04,0.03 0.04,0.07 0,0.02 -0,0.04 0,0.06l0.1 0 0 -0.1c-0,-0.03 -0.01,-0.05 -0.04,-0.06 0,-0 0,-0 0,-0 0.01,-0.01 0.02,-0.02 0.03,-0.03 0.01,-0.02 0.01,-0.04 0.01,-0.06 0,-0.05 0.01,-0.08 -0.03,-0.1 -0.03,-0.01 -0.09,-0.01 -0.12,-0.01 -0.04,0 -0.09,-0 -0.13,0l-0 0.37 -0 0zm0.1 -0.2c0.03,0 0.07,0.01 0.09,-0.01 0.01,-0.01 0.01,-0.03 0.01,-0.04 0,-0.01 0,-0.04 -0,-0.05l-0.09 0 -0 0.1 0 0z"/>
  </g>
  <path class="fil1" d="M1.7 1.22l-0.15 -0 0 0.07 0.05 0 0 0.07 -0.1 0 0 -0.24 0.1 0 0 0.06 0.1 -0c0,-0.01 0,-0.07 0,-0.08 -0,-0.02 -0.02,-0.04 -0.04,-0.04 -0.03,-0.01 -0.13,-0.01 -0.16,-0.01 -0.03,0 -0.07,-0 -0.1,0.03 -0.01,0.01 -0.01,0.02 -0.01,0.03l0 0.25c0,0.04 0,0.04 0.03,0.06 0.02,0.01 0.04,0.01 0.07,0.01 0.03,0 0.14,0 0.16,-0 0.02,-0.01 0.04,-0.02 0.05,-0.04 0,-0.01 0,-0.14 0,-0.17l0 0z"/>
  <path class="fil2" d="M0.13 0.63l0 0.08c0,0.07 0.09,0.1 0.15,0.1 0.02,0 0.06,-0 0.06,0.03l-0 0.06 -0.1 -0 -0 -0.06 -0.11 0c0,0.02 -0,0.08 0.01,0.1 0.01,0.02 0.04,0.03 0.07,0.03l0.15 0c0.04,0 0.08,-0.02 0.08,-0.05l0 -0.08c0,-0.05 -0.05,-0.08 -0.1,-0.09 -0.02,-0 -0.07,-0 -0.09,-0.01 -0.01,-0.01 -0.01,-0.02 -0.01,-0.03 0,-0.01 -0,-0.04 0,-0.05l0.1 -0c0,0.01 0,0.05 0,0.06 0.01,0 0.09,0 0.11,0l0 -0.08c0,-0.03 -0.04,-0.05 -0.08,-0.05l-0.15 0c-0.04,0 -0.08,0.02 -0.08,0.06l0 0z"/>
  <path class="fil1" d="M1.03 1.35l-0.1 0 -0 -0.06 -0.1 -0c-0,0.02 -0,0.04 -0,0.06 0,0.02 -0,0.03 0.01,0.05 0.02,0.03 0.06,0.02 0.1,0.02 0.04,0 0.08,-0 0.12,0 0.02,0 0.04,-0 0.05,-0.01 0.01,-0.01 0.03,-0.02 0.03,-0.03 0,-0.01 0,-0.1 -0,-0.11 -0.01,-0.03 -0.03,-0.05 -0.06,-0.06 -0.07,-0.03 -0.14,-0 -0.14,-0.04 -0,-0.02 0,-0.04 0,-0.06l0.1 0 0 0.06 0.1 0c0,-0.02 0,-0.04 0,-0.06 0,-0.02 0,-0.03 -0.01,-0.05 -0.02,-0.02 -0.06,-0.02 -0.1,-0.02 -0.04,0 -0.08,0 -0.12,-0 -0.04,-0 -0.07,0.01 -0.08,0.04 -0,0.01 -0,0.1 0,0.11 0.01,0.04 0.07,0.06 0.11,0.07 0.04,0.01 0.09,-0 0.09,0.03 0,0.02 0,0.04 0,0.06l0 0z"/>
  <path class="fil2" d="M0.81 0.91c0,0.04 0.04,0.05 0.08,0.05l0.15 0c0.03,0 0.07,-0.02 0.08,-0.04 0,-0.01 0,-0.09 0,-0.11 0,-0.08 0,-0.15 0,-0.23 -0.01,-0 -0.09,-0 -0.11,-0l-0 0.31 -0.1 0 -0 -0.31c-0.02,-0 -0.08,-0 -0.11,-0l0 0.33 0 0z"/>
  <path class="fil3" d="M1.93 0.44l-0.09 -0 0 -0.06 -0.1 0c0,0.01 -0,0.08 0,0.08 0,0.01 0.01,0.01 0.01,0.02 0.02,0.02 0.05,0.02 0.09,0.02 0.04,0 0.08,-0 0.11,0 0.03,0 0.07,-0.01 0.08,-0.04 0,-0.01 0,-0.1 -0,-0.11 -0.01,-0.04 -0.06,-0.06 -0.1,-0.07 -0.02,-0 -0.04,-0 -0.05,-0 -0.02,-0 -0.03,-0.01 -0.03,-0.02 -0,-0.02 -0,-0.04 0,-0.06l0.09 -0 0 0.06 0.1 0c0,-0.02 0,-0.04 0,-0.06 0,-0.02 -0,-0.03 -0.01,-0.04 -0.02,-0.02 -0.05,-0.02 -0.09,-0.02 -0.04,0 -0.08,0 -0.11,0 -0.03,-0 -0.07,0.01 -0.08,0.04 -0,0.01 -0,0.09 0,0.11 0.01,0.04 0.06,0.06 0.1,0.07 0.03,0.01 0.09,-0 0.09,0.03 0,0.02 0,0.04 0,0.06l-0 -0z"/>
  <path class="fil1" d="M0.5 1.42l0.28 0 0 -0.07c-0.02,0 -0.16,0 -0.17,-0l0 -0.08 0.15 -0 0 -0.07 -0.15 -0 -0 -0.08c0.01,-0 0.15,-0 0.17,-0l0 -0.07 -0.28 0 0 0.39 0 0z"/>
  <polygon class="fil3" points="0.48,0.5 0.74,0.5 0.74,0.44 0.58,0.44 0.58,0.35 0.71,0.35 0.71,0.29 0.58,0.29 0.58,0.2 0.74,0.2 0.74,0.14 0.48,0.14 "/>
  <polygon class="fil3" points="1.2,0.5 1.47,0.5 1.47,0.44 1.3,0.44 1.3,0.35 1.44,0.35 1.44,0.29 1.3,0.29 1.3,0.2 1.47,0.2 1.47,0.14 1.2,0.14 "/>
  <path class="fil2" d="M0.47 0.65l0.1 0 0 0.31 0.1 0 0 -0.31 0.1 0c0,-0.01 0,-0.06 0,-0.07l-0.31 0 0 0.07 0 0z"/>
  <path class="fil3" d="M0.27 0.41c0,0.02 -0.02,0.02 -0.04,0.03 -0.02,0 -0.04,0 -0.06,0l0 0.07c0.05,0 0.1,0 0.14,-0.01 0.03,-0.01 0.07,-0.04 0.07,-0.08 0,-0.01 0,-0.28 0,-0.3 -0.01,-0 -0.09,-0 -0.11,-0l0 0.29 0 0z"/>
  <polygon class="fil2" points="1.59,0.96 1.6,0.96 1.7,0.96 1.7,0.58 1.59,0.58 "/>
  <polygon class="fil1" points="1.2,1.42 1.31,1.42 1.31,1.04 1.2,1.04 "/>
  <path class="fil3" d="M1.54 0.19l0.03 0c0,0.01 -0,0.06 0,0.08 0.01,-0.01 0.02,-0.02 0.03,-0.03l0.04 -0.04c0.01,-0.01 0.01,-0.01 0.01,-0.02 -0,-0.02 -0,-0.04 -0,-0.06 -0.02,-0 -0.09,-0 -0.11,-0l0 0.07 0 0z"/>
 </g>
</svg>
