<svg xmlns="http://www.w3.org/2000/svg" viewBox="0 0 15 10.6"><defs><style>.cls-1{fill:#fff;}.cls-1,.cls-2,.cls-3,.cls-4{fill-rule:evenodd;}.cls-2{fill:#2bafcb;}.cls-3{fill:#d43b9b;}.cls-4{fill:#eec02d;}</style></defs><title>Asset 1</title><g id="Layer_2" data-name="Layer 2"><g id="Layer_1-2" data-name="Layer 1"><g id="Layer_1-3" data-name="Layer_1"><path class="cls-1" d="M9.8.2H8A1,1,0,0,0,7.5.34c-.07,0-.07-.07-.13-.07A1.29,1.29,0,0,0,6.83.2H5.14A.8.8,0,0,0,4.87.14H3.11c-.2,0-.2.06-.27,0A.07.07,0,0,1,2.77.07C2.71,0,2.57,0,2.44,0H1.63c-.07,0-.21.07-.27.07a.48.48,0,0,0-.27.27A.92.92,0,0,0,1,.74V2.16a.68.68,0,0,0-.61.41c0,.06-.06.2-.06.27v.74C-.06,4,0,4.25,0,4.79s.13.41.06.54A3.42,3.42,0,0,0,0,6.14a.68.68,0,0,0,.06.34c.07.14.07.07,0,.2A1,1,0,0,0,0,7.09V9.66a1.23,1.23,0,0,0,.13.47.33.33,0,0,0,.2.2,1,1,0,0,0,.48.14h1a3.28,3.28,0,0,0,.81-.14l.2-.07a.57.57,0,0,0,.2.14.51.51,0,0,0,.34.07H5.2a2.3,2.3,0,0,0,.41-.07,1.57,1.57,0,0,0,.47.07h1a1.29,1.29,0,0,0,.54-.07c.13-.07,0,0,.2.07s.2.06.27.06h.67a.94.94,0,0,0,.41-.13c.07-.07.07,0,.13,0a1.35,1.35,0,0,0,.61.13h1c.2,0,.4-.06.54-.06s.06-.07.13,0a1,1,0,0,0,.41.06h.94a.83.83,0,0,0,.34.07h.95a.78.78,0,0,0,.74-.4A.51.51,0,0,0,15,9.86V7.16c0-.27-.21-.41-.21-.48V6.62c0-.07.07-.21.07-.27v-2a1,1,0,0,0-.13-.47l-.07-.07-.07-.07-.07-.07s-.06-.13-.13-.13V3.51a2.46,2.46,0,0,0,0-1c-.07-.27-.07-.14,0-.34a2.19,2.19,0,0,0,.07-.67,1.09,1.09,0,0,0-.41-.88,1.34,1.34,0,0,0-.94-.34H11.75c-.06,0-.06,0-.13.07S11.48.2,11.42.2a.58.58,0,0,0-.34-.06h-.81a.5.5,0,0,0-.34.13C9.8.34,9.86.34,9.8.34h0Z"/><path class="cls-2" d="M11.82,9.66h.68V8c0,.06.27.74.27.81s.27.81.27.81H14V7h-.67V8.71L12.7,7h-1V9.66h.13Z"/><g id="_1702110254896" data-name=" 1702110254896"><path class="cls-3" d="M11.82,4.32V6.21c0,.27.27.41.54.41h1c.13,0,.27,0,.33-.07s.21-.14.21-.27V4.39c0-.2-.27-.34-.54-.34h-1c-.27,0-.54.14-.54.41h0ZM12.57,6h.67V4.39h-.67Z"/><path class="cls-3" d="M8,6.55H9.05c.48,0,1-.2,1-.68V4.25c0-.2-.27-.33-.54-.33H8Zm.75-.47h.4c.14,0,.27-.07.27-.21V4.39H8.72V6.08Z"/><path class="cls-2" d="M.68,9.66H1.76c.47,0,1-.21,1-.68V7.43c0-.2-.27-.34-.47-.34H.68V9.72h0Zm.74-.48h.34C1.9,9.18,2,9.12,2,9V7.5H1.36V9.12h0Z"/><path class="cls-4" d="M5.34,3.44H6V2.57h.4c.34,0,.27.2.27.47v.4h.68V2.77a.38.38,0,0,0-.27-.41h0l.2-.2a.81.81,0,0,0,.07-.4c0-.34.06-.54-.21-.68A3.13,3.13,0,0,0,6.35,1H5.48v2.5h0ZM6,2.09c.2,0,.47.07.6-.06a.41.41,0,0,0,.07-.27V1.42H6.08v.67H6Z"/></g><path class="cls-2" d="M11.35,8.31h-1v.47h.33v.47H10V7.63h.67V8h.68V7.5a.29.29,0,0,0-.27-.27A5.6,5.6,0,0,0,10,7.16a.92.92,0,0,0-.68.2.27.27,0,0,0-.06.2V9.25c0,.27,0,.27.2.41a1.1,1.1,0,0,0,.47.06H11a.61.61,0,0,0,.34-.27V8.31Z"/><path class="cls-3" d="M.75,4.32v.54c0,.47.61.68,1,.68.14,0,.41,0,.41.2v.4H1.49v-.4H.75a2.19,2.19,0,0,0,.07.67.51.51,0,0,0,.47.21h1c.27,0,.54-.14.54-.34V5.74c0-.34-.34-.54-.67-.61a1.79,1.79,0,0,1-.61-.07.23.23,0,0,1-.07-.2V4.52h.68v.41h.74V4.39c0-.2-.27-.34-.54-.34h-1c-.27,0-.54.14-.54.41h0Z"/><path class="cls-2" d="M6.83,9.18H6.15v-.4H5.48v.4a.66.66,0,0,0,.06.34c.14.2.41.14.68.14H7a.51.51,0,0,0,.34-.07c.06-.07.2-.14.2-.2V8.64a.61.61,0,0,0-.41-.4c-.47-.2-.94,0-.94-.27V7.56h.67V8h.68V7.56a.57.57,0,0,0-.07-.33c-.13-.14-.4-.14-.67-.14H6c-.27,0-.48.07-.54.27V8.1c.06.27.47.41.74.48s.61,0,.61.2v.4Z"/><path class="cls-3" d="M5.34,6.21c0,.27.27.34.54.34h1a.69.69,0,0,0,.54-.27V4H6.69v2.1H6V4H5.27V6.21h.07Z"/><path class="cls-4" d="M12.9,3h-.61V2.63h-.67v.54c0,.07.07.07.07.14s.33.13.6.13H13c.2,0,.47-.06.54-.27V2.43c-.07-.27-.41-.4-.68-.47h-.33c-.14,0-.21-.07-.21-.14v-.4H13v.4h.68v-.4c0-.14,0-.2-.07-.27S13.24,1,13,1h-.74c-.21,0-.48.07-.54.27V2c.06.27.4.4.67.47s.61,0,.61.2v.41h0Z"/><path class="cls-2" d="M3.25,9.66H5.14V9.18H4V8.64H5V8.17H4V7.63H5.14V7.16H3.25V9.79h0Z"/><polygon class="cls-4" points="3.11 3.44 4.87 3.44 4.87 3.04 3.79 3.04 3.79 2.43 4.67 2.43 4.67 2.03 3.79 2.03 3.79 1.42 4.87 1.42 4.87 1.01 3.11 1.01 3.11 3.44"/><polygon class="cls-4" points="7.97 3.44 9.8 3.44 9.8 3.04 8.65 3.04 8.65 2.43 9.59 2.43 9.59 2.03 8.65 2.03 8.65 1.42 9.8 1.42 9.8 1.01 7.97 1.01 7.97 3.44"/><path class="cls-3" d="M3,4.46h.68V6.55h.67V4.46h.68V4H3v.48H3Z"/><path class="cls-4" d="M1.69,2.84c0,.13-.13.13-.27.2H1v.47A4,4,0,0,0,2,3.44a.64.64,0,0,0,.48-.54v-2H1.69v2Z"/><polygon class="cls-3" points="10.61 6.55 10.67 6.55 11.35 6.55 11.35 3.98 10.61 3.98 10.61 6.55"/><polygon class="cls-2" points="7.97 9.66 8.72 9.66 8.72 7.09 7.97 7.09 7.97 9.66"/><path class="cls-4" d="M10.27,1.35h.2v.54l.2-.2.27-.27c.07-.07.07-.07.07-.14V.88h-.74v.47Z"/></g></g></g></svg>