<?xml version="1.0" encoding="UTF-8"?>
<!DOCTYPE svg PUBLIC "-//W3C//DTD SVG 1.1//EN" "http://www.w3.org/Graphics/SVG/1.1/DTD/svg11.dtd">
<!-- Creator: CorelDRAW 2020 (64-Bit) -->
<svg xmlns="http://www.w3.org/2000/svg" xml:space="preserve" width="93.8066mm" height="65.1404mm" version="1.1" style="shape-rendering:geometricPrecision; text-rendering:geometricPrecision; image-rendering:optimizeQuality; fill-rule:evenodd; clip-rule:evenodd"
viewBox="0 0 1591.99 1105.49"
 xmlns:xlink="http://www.w3.org/1999/xlink"
 xmlns:xodm="http://www.corel.com/coreldraw/odm/2003">
 <defs>
  <style type="text/css">
   <![CDATA[
    .fil2 {fill:#2BAFCB}
    .fil1 {fill:#D43B9B}
    .fil3 {fill:#EEC02D}
    .fil0 {fill:white}
   ]]>
  </style>
 </defs>
 <g id="Layer_x0020_1">
  <metadata id="CorelCorpID_0Corel-Layer"/>
  <g id="_1702094266032">
   <path class="fil0" d="M1055.33 15.14l-190.24 0c-21.55,0 -35.84,6.18 -52.06,17.04 -4.1,-0.95 -10.53,-4.81 -15.13,-6.64 -17.25,-6.83 -37.93,-10.4 -57.75,-10.4 -28.54,0 -149.1,-1.43 -168.22,1.2 -3.31,0.46 -11.83,3.12 -13.63,3.21 -1.9,0.09 -14.18,-4.41 -29.22,-4.41l-185.51 0c-19.65,0 -18.44,5.4 -25.76,0.23 -2.68,-1.89 -3.92,-2.76 -7.04,-4.35 -8.64,-4.39 -21,-9.13 -33.46,-9.13l-87.08 0c-10.1,0 -22.54,4.63 -29.67,8.19 -12.25,6.12 -23.59,15.27 -31.11,26.62 -8.18,12.35 -14.94,27.06 -14.94,43.74l0 147.65c-27.5,0 -56.79,21.98 -67.85,45.73 -3.19,6.84 -7.87,20.61 -7.87,29.99l0 63.41c0,7.36 2.8,7.4 -1.08,12.14 -33.3,40.67 -28.26,73 -28.26,126.05 0,44.39 12.92,46.52 7.18,60.17 -10.3,24.46 -7.18,54.57 -7.18,83.7 0,10.38 1.58,25.47 4.61,35.15 4.71,15.04 4.24,7.09 -3.38,20.98 -6.47,11.79 -10.69,25.67 -10.69,40.42l0 276.37c0,16.67 6.09,35.44 14.99,47.48 8.01,10.83 10.43,13.27 21.36,21.23 12.47,9.07 31.54,14.59 48.83,14.59l104.11 0c31.81,0 60.66,-4.08 88.62,-13.6l24.95 -10.07c6.08,4.07 9.07,9.98 25,16.65 9.92,4.15 21.02,7.02 34.63,7.02l195.92 0c23.24,0 35.94,-8.52 39.75,-8.52 1.05,0 22.91,8.52 53,8.52l105.06 0c21.68,0 41.76,-3.55 57.6,-9.6 12.42,-4.75 2.78,-2.37 23.91,4.77 8.51,2.87 18.01,4.84 29.23,4.84l70.04 0c14.05,0 32.08,-4.05 43,-10.95 6.97,-4.4 5.35,-3.46 12.84,-0.41 17.43,7.11 37.94,11.36 62.47,11.36l103.17 0c22.21,0 42.84,-3.68 58.97,-10.13 7.37,-2.95 5.34,-3.87 11.1,-0.36 10.85,6.61 28.36,10.49 42.56,10.49l65.12 0c9.86,-0.29 18.23,-0.82 23.01,-1.78 2.91,-0.58 5.27,-1.15 7.59,-1.88 1.62,-0.51 6.21,-2.34 7.59,-2.36 2.01,-0.03 12.96,6.02 32.99,6.02l99.38 0c33.28,0 61.95,-16.94 76.35,-45.74 4.29,-8.58 8.83,-20.43 8.83,-32.81l0 -286.79c0,-25.58 -18.9,-46.6 -19.75,-48.37 -1,-2.08 -1.13,-0.25 0.13,-4.23 2.95,-9.27 5.42,-18.49 5.42,-29.74l0 -207.28c0,-19.67 -6.71,-38.5 -13.89,-51.41 -1.96,-3.52 -3.9,-6.74 -6.24,-9.85 -2.36,-3.13 -4.41,-6.3 -7.07,-9.02 -1.63,-1.67 -2.12,-1.97 -3.63,-3.94 -2.12,-2.76 -10.59,-11.09 -13.65,-11.9 0.86,-3.71 2.04,-6.22 3.19,-10.06 6.39,-21.31 5.36,-83.23 2.34,-104.32 -4.25,-29.68 -10.05,-17.18 -3.08,-35.55 7.08,-18.67 5.12,-52.47 5.12,-73.44 0,-37.33 -13.39,-69.13 -40.03,-91.53 -23.48,-19.74 -55.3,-34.35 -98.16,-34.35 -31.88,0 -102.49,-1.97 -130.76,2.7 -5.04,0.83 -9.08,1.64 -13.22,2.87 -4.38,1.3 -8.99,2.94 -13.13,3.9 -4.45,-6.64 -15.13,-12.79 -23.02,-16.73 -8.6,-4.3 -20.31,-7.88 -32.82,-7.88l-85.18 0c-11.82,0 -28.96,5.43 -38.06,11.16 -12.87,8.11 -4.13,3.98 -11.16,3.98z"/>
   <path class="fil1" d="M1273.24 454.31l0 197.81c0,26.09 28.43,40 55.62,40l110.74 0c14.07,0 26.43,-3.42 36.37,-9.3 7.7,-4.56 19.25,-14.49 19.25,-26.91l0 -203.49c0,-24.57 -30.66,-37.86 -56.56,-37.86l-107.9 0c-28.07,0 -57.51,13.03 -57.51,39.75z"/>
   <path class="fil1" d="M863.89 692.13l112.88 0c49.13,0 109.09,-21.3 109.09,-68.39l0 -171.31c0,-24.98 -30.97,-37.86 -57.98,-37.86l-164.69 0 0.7 277.56z"/>
   <path class="fil2" d="M82.82 1022.67l116.41 0c49.28,0 105.53,-22.57 105.53,-70.51l0 -167.53c0,-24.14 -27.18,-39.27 -53,-39.27l-168.95 0 0.01 277.31z"/>
   <path class="fil2" d="M1268.29 1022.68l75.13 -0.01 0.37 -175.5c3.43,5.78 28.48,80.1 30.96,87.5 3.44,10.29 28.55,84.46 31.07,88l103.35 0 0.47 -277.32 -75.13 0.01 -0.37 176.57 -61.27 -176.43 -104.12 -0.16 -0.47 277.33z"/>
   <path class="fil3" d="M584.19 361.18l71.52 0.17 0.21 -93.71c13.25,0 26.5,-0.02 39.75,-0.02 35.16,0.01 27.65,21.63 27.65,53.23 0,12.67 -0.77,27.97 0.17,40.32l71.54 0.17 0.29 -71.73c-0.02,-20.72 -8.1,-37.07 -26.85,-46.07 1.87,-2.59 0.77,-1.24 3.17,-2.91 8.1,-5.63 15.45,-10.92 20.06,-21.55 5.33,-12.3 3.62,-30.48 3.62,-44.94 0,-38.49 6.42,-56.56 -25.07,-70.79 -18.74,-8.47 -65.78,-5.44 -89.72,-5.44 -30.58,0 -66,-1.65 -95.98,0.12l-0.35 263.13z"/>
   <path class="fil2" d="M1217.89 872.71l-111.22 -0.29 -0.01 51.29 35.5 0.31 0.25 47.07 -71.06 0 0.06 -174.39 71.05 0 -0 42.35 75.08 -0.01c1.26,-7.32 0.98,-50.64 0.15,-58.6 -1.67,-15.98 -16.33,-25.79 -29.79,-30.93 -19.05,-7.28 -90.73,-4.16 -116.48,-4.16 -22.64,0 -53.59,-1.36 -69.64,20.77 -5.83,8.05 -5.86,12.7 -5.84,24.19l0 180.78c-0,25.31 1.92,31.29 18.49,41.87 15.56,9.93 30.8,9.71 51.32,9.71 23.63,0 99.99,2.08 117.9,-2.8 14.4,-3.92 29.5,-14.56 33.15,-27.44 2.32,-8.19 1.09,-103.2 1.09,-119.72z"/>
   <path class="fil1" d="M92.26 454.31l0 54.9c0,51.72 62.24,68.59 105.52,69.94 16.6,0.52 40.95,-0.18 40.95,18.09l-0.23 43.3 -70.55 -0.02 -0.18 -42.33 -75.53 0.33c0.02,17.09 -3.09,58.02 4.07,69.9 8.14,13.5 27.98,23.71 51.33,23.71l110.27 0c26.67,0 56.31,-13.72 56.31,-38.1l0 -58.68c0,-36.8 -38.55,-57.6 -73.69,-64.49 -17.92,-3.51 -48.46,-1.52 -62.16,-6.98 -10.26,-4.09 -10.64,-10.78 -10.61,-23.19 0.02,-8.7 -0.99,-26.87 0.36,-34.42l70.01 -0.12c1.56,5.53 0.6,34.14 0.6,42.07 9.33,0.9 61.99,0.3 75.49,0.29l0 -56.09c0,-24.72 -30.7,-37.86 -56.79,-37.86l-107.9 0c-27.88,0 -57.28,13.23 -57.28,39.75z"/>
   <path class="fil2" d="M739.91 970.85l-70.98 0.25 -0.02 -42.19 -75.23 -0.18c-1.19,12.36 -0.23,29.5 -0.23,42.36 0,16.03 -0.28,24.87 8.38,34.21 17.23,18.58 45.1,17.37 69.23,17.37 28.39,0 56.79,-0.05 85.18,0.01 13.26,0.03 25.76,-1.89 35.96,-7.11 8.67,-4.44 18.54,-12.15 21.68,-21.82 3.27,-10.09 2.25,-71.9 -0.88,-82.26 -6.15,-20.43 -24.4,-33.29 -44.34,-41.8 -47.33,-20.2 -98.22,-0.73 -99.73,-29.15 -0.73,-13.78 -0,-29.8 -0,-43.82l70.98 0.02 0 42.32 75.25 0c0.23,-14.35 0.23,-28.71 0.23,-43.06 0,-16.42 0.01,-24.42 -9.37,-33.69 -17.65,-17.46 -39.58,-16.94 -69.65,-16.94 -28.39,0 -56.79,0.05 -85.18,-0.01 -26.07,-0.05 -50.99,10.72 -56.68,29.91 -2.99,10.08 -1.85,71.73 1.33,81.75 9.63,30.33 47.82,46.18 78.1,50.65 25.62,3.79 64.5,-3.25 65.94,19.93 0.83,13.39 0.04,29.56 0.04,43.26z"/>
   <path class="fil1" d="M583.03 653.07c0,25.14 29.2,39.05 55.84,39.05l110.86 0c23.36,0 48.57,-11.63 53.96,-29.47 3.1,-10.28 1.31,-66.43 1.31,-81.52 0,-55.37 0,-110.75 0,-166.13 -8.15,-1.34 -62.87,-0.47 -75.51,-0.45l-0.13 225.79 -70.53 0.18 -0.31 -225.75c-12.27,-0.93 -59.76,-0.24 -75.49,-0.22l0 238.51z"/>
   <path class="fil3" d="M1385.86 312.55l-67.15 -0.03 0 -40.44 -71.78 0c0.02,8.69 -0.86,54.15 0.98,60.65 1.8,6.37 4.61,9.03 8.14,12.67 16.45,16.98 37.26,15.95 65.25,15.95 27.13,0 54.27,-0.05 81.41,0.01 19.9,0.04 47.61,-7.27 54.06,-28.04 3.02,-9.73 1.8,-68.69 -1.33,-78.44 -9.23,-28.71 -45.76,-43.39 -74.28,-47.75 -13.16,-2.01 -25.37,-1.32 -38.28,-2.47 -12.11,-1.08 -23.56,-4.34 -24.15,-16.28 -0.54,-11.01 -0.72,-30.43 0.19,-41.21l66.65 -0.19 0.34 39.67 71.97 0.34c0,-13.75 -0,-27.48 0,-41.22 0,-15.01 -0.51,-24.06 -8.89,-32.08 -16.6,-15.89 -37.19,-15.76 -65.2,-15.76 -27.13,0 -54.27,0.03 -81.4,-0.01 -19.83,-0.03 -47.65,6.88 -54.21,27.7 -2.74,8.69 -1.89,67.83 0.8,77.37 8.33,29.53 45.37,44.71 73.98,49.02 24.7,3.73 61.5,-2.98 62.93,18.64 0.84,12.78 0.01,28.77 0.01,41.91z"/>
   <path class="fil2" d="M360.37 1022.67l200.66 0 0.24 -51.58c-17.9,0 -115.93,0.63 -125.43,-0.34l0.03 -60.59 104.35 -0.37 0 -51.27 -104.24 -0.32 -0.12 -60.9c5.75,-1.58 110.04,-0.59 125.18,-0.59l0.23 -51.35 -200.89 0 0 277.31z"/>
   <polygon class="fil3" points="341.17,361 531.71,361.35 531.91,312.55 412.93,312.53 412.96,254.27 512.05,254.16 512.05,205.12 413.11,205.11 412.94,147.15 531.92,146.96 531.88,97.92 341.41,97.93 "/>
   <polygon class="fil3" points="862.68,361 1053.42,361.35 1053.68,312.55 934.44,312.53 934.47,254.27 1033.82,254.16 1033.82,205.12 934.62,205.11 934.45,147.15 1053.44,146.95 1053.7,98.3 862.93,97.93 "/>
   <path class="fil1" d="M339.32 465.92l73.57 0.25 0 225.67 75.27 0.07 -0.01 -225.75 72.63 0c1.31,-7.7 0.49,-41.35 0.47,-51.6l-221.97 0.01 0.02 51.35z"/>
   <path class="fil3" d="M196.87 291.52c0,14.41 -15.31,17.43 -29.33,18.18 -14.82,0.79 -31.44,0.25 -46.65,0.25l0.03 51.41c33.6,0 68.59,2.06 98.21,-8.78 24.91,-9.12 49.75,-25.23 53,-54.06 1.2,-10.66 0.26,-198.14 0.26,-214.26 -9.8,-0.91 -61.65,-0.29 -75.51,-0.28l0 207.54z"/>
   <polygon class="fil1" points="1141.68,691.84 1145.24,692.18 1217.18,692.13 1217.18,414.56 1141.68,414.58 "/>
   <polygon class="fil2" points="864.15,1022.68 939.27,1022.67 939.62,745.47 864.61,745.35 "/>
   <polygon class="fil0" points="1348.74,636.98 1348.93,640.53 1419.49,640.52 1419.77,636.99 1419.73,466.16 1348.74,466.16 "/>
   <path class="fil0" d="M939.4 640.17c7.29,1.28 35.63,0.69 43.87,0.06 13.4,-1.01 27.08,-4.16 27.08,-18.39l0 -155.68c-10.85,0 -65,-1.29 -70.95,0.72l0 173.29z"/>
   <path class="fil0" d="M158.3 970.85l3.54 0.29 35.97 -0.05c15.8,0 31.47,-3.66 31.47,-19.88l0 -154.51 -70.98 0.02 0 174.13z"/>
   <path class="fil3" d="M1108.07 133.96l22.56 0c2.79,9.57 -0.55,44.39 0.85,57.74 6.54,-6.93 13.76,-13.3 20.25,-20.52l30.58 -31.89c5.71,-5.74 5.39,-4.48 5.33,-15.29 -0.08,-13.81 -0.01,-27.63 -0.01,-41.44 -13.79,-0.97 -62.32,-0.22 -79.56,-0.21l0 51.61z"/>
   <path class="fil0" d="M655.9 218.64c19.23,0 49.33,3.91 62.25,-6.85 7.39,-6.15 5.17,-18.38 5.17,-30.07 0,-9.91 0.92,-25.53 -0.32,-34.76l-66.86 0 -0.24 71.67z"/>
  </g>
 </g>
</svg>
